HIERARCHY
ROOT Hips
{
	OFFSET 0.00000 0.00000 0.00000
	CHANNELS 6 Xposition Yposition Zposition Zrotation Yrotation Xrotation 
	JOINT LHipJoint
	{
		OFFSET 0 0 0
		CHANNELS 3 Zrotation Yrotation Xrotation
		JOINT LeftUpLeg
		{
			OFFSET 1.51378 -1.89840 0.47569
			CHANNELS 3 Zrotation Yrotation Xrotation
			JOINT LeftLeg
			{
				OFFSET 2.53380 -6.96157 0.00000
				CHANNELS 3 Zrotation Yrotation Xrotation
				JOINT LeftFoot
				{
					OFFSET 2.74874 -7.55212 0.00000
					CHANNELS 3 Zrotation Yrotation Xrotation
					JOINT LeftToeBase
					{
						OFFSET 0.18263 -0.50178 1.99677
						CHANNELS 3 Zrotation Yrotation Xrotation
						End Site
						{
							OFFSET 0.00000 -0.00000 1.03711
						}
					}
				}
			}
		}
	}
	JOINT RHipJoint
	{
		OFFSET 0 0 0
		CHANNELS 3 Zrotation Yrotation Xrotation
		JOINT RightUpLeg
		{
			OFFSET -1.43037 -1.89840 0.47569
			CHANNELS 3 Zrotation Yrotation Xrotation
			JOINT RightLeg
			{
				OFFSET -2.69849 -7.41406 0.00000
				CHANNELS 3 Zrotation Yrotation Xrotation
				JOINT RightFoot
				{
					OFFSET -2.69369 -7.40087 0.00000
					CHANNELS 3 Zrotation Yrotation Xrotation
					JOINT RightToeBase
					{
						OFFSET -0.28932 -0.79491 2.04975
						CHANNELS 3 Zrotation Yrotation Xrotation
						End Site
						{
							OFFSET 0.00009 0.00010 1.09536
						}
					}
				}
			}
		}
	}
	JOINT LowerBack
	{
		OFFSET 0 0 0
		CHANNELS 3 Zrotation Yrotation Xrotation
		JOINT Spine
		{
			OFFSET 0.01912 1.94784 -0.02419
			CHANNELS 3 Zrotation Yrotation Xrotation
			JOINT Spine1
			{
				OFFSET 0.07565 1.94258 0.01909
				CHANNELS 3 Zrotation Yrotation Xrotation
				JOINT Neck
				{
					OFFSET 0 0 0
					CHANNELS 3 Zrotation Yrotation Xrotation
					JOINT Neck1
					{
						OFFSET -0.07010 1.86195 0.18976
						CHANNELS 3 Zrotation Yrotation Xrotation
						JOINT Head
						{
							OFFSET 0.02284 1.86595 -0.31497
							CHANNELS 3 Zrotation Yrotation Xrotation
							End Site
							{
								OFFSET 0.01200 1.90122 -0.12838
							}
						}
					}
				}
				JOINT LeftShoulder
				{
					OFFSET 0 0 0
					CHANNELS 3 Zrotation Yrotation Xrotation
					JOINT LeftArm
					{
						OFFSET 3.39189 0.96331 -0.10437
						CHANNELS 3 Zrotation Yrotation Xrotation
						JOINT LeftForeArm
						{
							OFFSET 5.14845 -0.00000 0.00000
							CHANNELS 3 Zrotation Yrotation Xrotation
							JOINT LeftHand
							{
								OFFSET 3.43674 -0.00000 -0.00000
								CHANNELS 3 Zrotation Yrotation Xrotation
								JOINT LeftFingerBase
								{
									OFFSET 0 0 0
									CHANNELS 3 Zrotation Yrotation Xrotation
									JOINT LeftHandIndex1
									{
										OFFSET 0.58871 -0.00000 0.00000
										CHANNELS 3 Zrotation Yrotation Xrotation
										End Site
										{
											OFFSET 0.47463 -0.00000 0.00000
										}
									}
								}
								JOINT LThumb
								{
									OFFSET 0 0 0
									CHANNELS 3 Zrotation Yrotation Xrotation
									End Site
									{
										OFFSET 0.48188 -0.00000 0.48188
									}
								}
							}
						}
					}
				}
				JOINT RightShoulder
				{
					OFFSET 0 0 0
					CHANNELS 3 Zrotation Yrotation Xrotation
					JOINT RightArm
					{
						OFFSET -3.34934 1.18831 -0.19928
						CHANNELS 3 Zrotation Yrotation Xrotation
						JOINT RightForeArm
						{
							OFFSET -5.42185 -0.00000 0.00000
							CHANNELS 3 Zrotation Yrotation Xrotation
							JOINT RightHand
							{
								OFFSET -3.51317 -0.00000 -0.00000
								CHANNELS 3 Zrotation Yrotation Xrotation
								JOINT RightFingerBase
								{
									OFFSET 0 0 0
									CHANNELS 3 Zrotation Yrotation Xrotation
									JOINT RightHandIndex1
									{
										OFFSET -0.66319 -0.00000 0.00000
										CHANNELS 3 Zrotation Yrotation Xrotation
										End Site
										{
											OFFSET -0.53468 -0.00000 0.00000
										}
									}
								}
								JOINT RThumb
								{
									OFFSET 0 0 0
									CHANNELS 3 Zrotation Yrotation Xrotation
									End Site
									{
										OFFSET -0.54284 -0.00000 0.54284
									}
								}
							}
						}
					}
				}
			}
		}
	}
}
MOTION
Frames: 16
Frame Time: 0.0666667
0.00 0.00 0.00 0 0 0 0 0 0 -21 0 0 0 0 0 0 0 0 0 0 0 0 0 0 21 0 0 0 0 0 0 0 0 0 0 0 0 0 0 0 0 0 0 0 0 0 0 -16 0 0 21 0 0 11 0 0 0 -8 0 0 0 0 0 0 0 0 0 0 0 0 0 0 0 0 0 0 0 0 8 0 0 0 0 0 0 0 0 0 0 0 0 0 0 0 0 0
0.00 0.00 0.00 -1.2931 44.4678 6.4918 0.0000 0.0000 0.0000 -18.4189 -8.1631 -20.7753 4.7611 13.1096 39.7800 0.8829 -1.1186 -17.4151 0.0755 -1.7722 -4.8766 0.0000 0.0000 0.0000 26.0219 9.5635 -14.9410 -3.5845 -11.5860 34.2826 -2.2151 -2.5210 -29.1200 -0.0031 -0.3592 0.9869 -1.4732 0.3337 -1.4312 3.0013 0.4590 -0.0527 3.9232 0.2258 0.7125 -3.2051 -1.5708 -15.6160 -1.0831 -1.0163 20.6009 0.0440 -0.8105 9.0642 -0.0000 -0.0000 0.0000 -92.2000 3.6826 15.8186 15.7034 -25.1168 -3.5191 -0.0000 0.0000 -0.2452 19.5249 22.7996 7.8242 -7.1250 0.0000 -0.0000 -9.9668 53.7417 -2.1588 -0.0000 -0.0000 0.0000 87.7272 0.9991 19.5556 -13.6253 22.1965 -2.6849 0.0000 0.0000 1.6539 -25.7659 11.5188 -5.5055 7.1250 -0.0000 -0.0000 0.9687 -17.2301 0.6384
0.00 0.00 0.00 -2.1249 44.3745 8.2786 0.0000 0.0000 0.0000 -12.3939 -12.8894 -34.1257 0.4814 4.4492 12.3439 0.1924 3.6065 -10.4210 0.1537 -2.5262 -6.9624 0.0000 0.0000 0.0000 27.8237 6.0060 -6.0677 -1.9461 -8.7528 25.0251 -2.4332 -0.9331 -29.8745 -0.0040 -0.4062 1.1160 -0.1875 2.6095 0.0033 2.5899 3.4611 1.7760 2.8083 1.7145 1.6482 -4.8571 -2.4465 -16.4451 -1.5997 -1.6881 18.6808 0.0592 -1.2833 8.5863 0.0000 -0.0000 0.0000 -93.6460 6.0083 12.7751 15.1474 -24.3511 -3.2865 -0.0000 -0.0000 1.5139 18.6285 21.7798 7.1292 -7.1250 0.0000 -0.0000 -10.4666 52.5423 -1.9603 0.0000 -0.0000 0.0000 86.3897 11.8083 26.0828 -20.8861 31.6952 -5.9900 0.0000 -0.0000 -8.4724 -26.5347 10.6976 -5.2956 7.1250 -0.0000 -0.0000 0.3782 -18.0571 0.2424
0.00 0.00 0.00 -0.5411 42.2508 9.6507 0.0000 0.0000 0.0000 -16.8958 -13.2793 -28.0240 0.7426 5.5049 15.3543 0.0022 -2.2430 -1.7268 0.1664 -2.6278 -7.2440 0.0000 0.0000 0.0000 23.1416 3.8781 -0.6850 -3.6388 -11.6635 34.5519 -0.7381 1.0748 -15.9025 -0.7733 5.6148 -15.6706 -1.5182 2.9876 -1.9918 1.7497 4.0014 0.7906 2.7751 1.9750 1.6971 -4.5442 -1.8890 -18.2340 -2.5114 -0.3903 24.5969 -0.1925 -0.8575 11.0070 -0.0000 0.0000 0.0000 -94.7052 7.7568 5.4398 12.3082 -20.2653 -2.2079 -0.0000 -0.0000 4.4724 19.2316 23.5748 7.9428 -7.1250 0.0000 -0.0000 -10.5866 54.4721 -2.4849 -0.0000 0.0000 0.0000 86.4978 7.7287 22.0436 -17.8782 28.0010 -4.4919 0.0000 -0.0000 -5.5866 -27.0766 11.6419 -5.8898 7.1250 -0.0000 -0.0000 0.0638 -16.9512 0.0425
0.00 0.00 0.00 0.9329 42.3033 9.3782 0.0000 0.0000 0.0000 -20.3361 -10.0128 -25.4454 0.9812 6.3055 17.6733 -0.0242 -5.5753 -3.1266 0.0618 -1.6043 -4.4132 0.0000 0.0000 0.0000 20.4433 4.4108 -6.5385 -7.1032 -15.4182 49.2636 -0.0109 -0.1131 -2.0186 -0.0195 0.9013 -2.4773 -2.7122 2.6171 -1.6646 1.5756 3.5338 0.8171 3.2336 1.7314 1.5079 -3.9849 -1.4041 -18.2167 -2.6640 0.2497 26.0424 -0.2556 -0.5525 11.5419 0.0000 0.0000 0.0000 -94.4617 6.9762 4.8723 12.1163 -19.9789 -2.1419 -0.0000 -0.0000 6.6227 16.6982 21.8525 6.3712 -7.1250 0.0000 -0.0000 -12.4068 52.2760 -2.2504 0.0000 0.0000 0.0000 86.3850 5.5219 20.0627 -16.6542 26.3996 -3.9323 0.0000 -0.0000 -2.4475 -26.7334 11.8422 -5.9013 7.1250 -0.0000 -0.0000 0.3168 -16.7676 0.2120
0.00 0.00 0.00 2.3941 43.2738 8.8046 0.0000 0.0000 0.0000 -23.0220 -9.3930 -21.1057 1.1182 6.7174 18.8808 0.0020 -7.1315 -5.0433 0.0011 -0.2186 -0.6007 0.0000 0.0000 0.0000 18.3899 5.5388 -14.1719 -11.6722 -18.2486 64.9459 -0.0358 -6.3931 5.3602 -0.2380 -3.1395 8.6674 -3.5426 1.8936 -0.7467 1.4460 2.5643 1.3054 3.5212 1.2301 1.5384 -3.7781 -1.0052 -18.1437 -2.7536 0.7769 26.1138 -0.2437 -0.3070 11.5517 -0.0000 -0.0000 0.0000 -93.4212 5.2004 9.6510 12.9838 -21.2634 -2.4474 -0.0000 -0.0000 4.4794 17.9000 21.5818 6.7753 -7.1250 0.0000 -0.0000 -11.1129 52.2137 -1.9936 -0.0000 -0.0000 0.0000 86.3391 4.6630 18.7032 -15.9092 25.3974 -3.6069 0.0000 -0.0000 -0.1887 -26.5200 11.9780 -5.9127 7.1250 -0.0000 -0.0000 0.4746 -16.6414 0.3188
0.00 0.00 0.00 1.0393 45.7357 6.0034 0.0000 0.0000 0.0000 -23.8013 -7.5642 -15.6446 1.9281 8.7147 24.9067 0.5489 -9.5640 -13.8637 0.0036 0.3852 1.0583 0.0000 0.0000 0.0000 18.5582 8.7961 -31.1886 -15.0139 -19.3932 75.2785 0.0712 -7.6809 -9.2421 -0.0613 -1.5969 4.3929 -2.7920 0.1956 -0.3231 2.3350 0.2697 0.9846 3.9742 0.0996 1.1684 -3.5337 -0.4620 -15.5028 -3.4511 1.6919 27.7964 -0.4067 0.0581 11.6805 -0.0000 -0.0000 0.0000 -90.2289 -1.3272 16.8417 13.9174 -22.6164 -2.7962 -0.0000 -0.0000 1.5710 19.5329 22.9877 7.8880 -7.1250 0.0000 -0.0000 -10.0347 53.9344 -2.2212 -0.0000 -0.0000 0.0000 86.5120 -0.8378 17.6460 -16.6151 26.3475 -3.9150 0.0000 -0.0000 -0.3771 -26.3591 12.1486 -5.9533 7.1250 -0.0000 -0.0000 0.5983 -16.4711 0.4041
0.00 0.00 0.00 0.8147 47.7215 5.5463 0.0000 0.0000 0.0000 -24.2457 -7.5420 -12.5330 2.4412 9.7302 28.1073 1.0219 -11.1900 -18.5377 0.2454 3.1877 8.8016 0.0000 0.0000 0.0000 18.0033 10.6133 -37.6569 -10.5797 -17.7232 61.4088 -0.3746 -6.9159 -16.1264 -0.0001 0.0537 -0.1475 -2.2409 -0.8164 0.1330 2.6386 -1.0922 1.0477 3.9629 -0.5773 1.0949 -3.7874 -0.3572 -15.3666 -3.2960 1.9203 28.5811 -0.2767 0.1421 11.9585 0.0000 0.0000 0.0000 -88.6177 -6.7673 21.5402 14.9589 -24.0888 -3.2091 -0.0000 0.0000 -0.8617 19.8750 23.4982 8.2020 -7.1250 0.0000 -0.0000 -9.8959 54.5191 -2.3316 0.0000 0.0000 0.0000 86.5608 -3.2864 17.3046 -17.0752 26.9567 -4.1213 0.0000 -0.0000 -0.5734 -26.6346 12.3302 -6.1129 7.1250 -0.0000 -0.0000 0.4207 -16.2387 0.2863
0.00 0.00 0.00 1.4780 49.3622 6.4359 0.0000 0.0000 0.0000 -25.0237 -3.2974 -2.2346 1.3338 7.3130 20.6460 1.2327 -11.7168 -20.2769 0.0000 0.0334 0.0917 0.0000 0.0000 0.0000 15.5852 15.4494 -34.5542 -1.3886 -7.4556 21.0725 -0.1487 -7.1936 -13.1312 -0.1523 2.5147 -6.9305 -2.7875 -1.7001 -0.2510 2.9097 -2.2689 1.6236 4.5170 -1.2011 2.0390 -3.7744 -0.4605 -14.9085 -3.2752 1.7659 28.9861 -0.2955 0.0768 12.0243 0.0000 0.0000 0.0000 -88.4398 -13.9213 24.4431 16.7844 -26.5727 -3.9904 -0.0000 0.0000 -2.4104 19.7543 23.4102 8.1203 -7.1250 0.0000 -0.0000 -9.9828 54.4063 -2.3249 0.0000 0.0000 0.0000 87.1607 -5.0872 14.2097 -15.3447 24.6241 -3.3683 0.0000 0.0000 0.2659 -26.5565 12.3608 -6.1071 7.1250 -0.0000 -0.0000 0.4768 -16.2140 0.3247
0.00 0.00 0.00 -3.1222 49.5365 4.0283 0.0000 0.0000 0.0000 -21.0153 -4.4086 3.9876 2.7257 10.2372 29.7484 -0.3649 -12.2011 -1.9122 0.3846 -3.9824 -11.0272 0.0000 0.0000 0.0000 22.8646 11.7364 -30.9866 -1.9344 -8.7281 24.9485 -0.0521 -3.8933 -7.3856 -0.0354 1.2140 -3.3377 0.3787 -1.8958 -0.2093 4.6054 -2.5753 1.8490 4.4825 -1.3105 2.2169 -3.9450 -0.2374 -14.9168 -4.0423 2.5369 30.6402 -0.4534 0.2778 12.7184 -0.0000 0.0000 0.0000 -91.5739 -11.2136 23.9307 17.0397 -26.9100 -4.1053 -0.0000 0.0000 -2.9155 19.3084 23.8794 8.0724 -7.1250 0.0000 -0.0000 -10.6397 54.7951 -2.5816 -0.0000 0.0000 0.0000 86.6031 -4.8600 6.0206 -11.1159 18.4656 -1.8124 0.0000 0.0000 7.2423 -25.7355 12.7432 -6.0693 7.1250 -0.0000 -0.0000 1.0707 -15.8883 0.7368
0.00 0.00 0.00 -4.9859 48.8635 2.3635 0.0000 0.0000 0.0000 -18.4864 -4.7275 -1.8445 5.0276 13.4148 40.9418 -0.0964 -10.9884 14.1178 0.0522 1.4742 4.0546 0.0000 0.0000 0.0000 25.4651 11.1196 -28.0046 -2.1515 -9.1747 26.3433 -0.1788 -2.0953 -9.0437 -0.0143 0.7731 -2.1247 1.1885 -1.5493 0.0167 5.0632 -2.1141 1.9457 4.5200 -1.0652 2.1430 -3.7037 -0.2747 -14.4817 -4.4181 2.5165 30.6143 -0.6412 0.2597 12.6253 -0.0000 -0.0000 0.0000 -91.3385 -8.7062 24.9674 16.9340 -26.7707 -4.0576 -0.0000 0.0000 -1.7968 18.9389 23.7740 7.8757 -7.1250 0.0000 -0.0000 -10.9719 54.6168 -2.6158 -0.0000 -0.0000 0.0000 86.1888 -4.8089 8.0375 -11.7875 19.4853 -2.0309 0.0000 0.0000 6.4672 -26.0878 12.8085 -6.1951 7.1250 -0.0000 -0.0000 0.8326 -15.7752 0.5749
0.00 0.00 0.00 -6.2527 48.2686 0.8845 0.0000 0.0000 0.0000 -15.6539 -6.6982 -11.5268 9.2895 16.9904 57.0859 0.2927 -9.8387 18.0702 0.4344 4.2296 11.7235 0.0000 0.0000 0.0000 27.6888 10.7128 -23.5302 -2.2691 -9.4054 27.0718 -0.3710 -1.6475 -12.2245 -0.0000 0.0395 -0.1086 1.5917 -0.9166 0.5054 5.1602 -1.2574 2.1943 4.4171 -0.6281 2.0573 -3.9354 -0.5211 -13.6263 -3.9831 2.0449 30.5494 -0.5013 0.1020 12.4044 -0.0000 0.0000 0.0000 -90.7169 -5.3189 27.4824 17.8281 -27.9365 -4.4684 -0.0000 0.0000 -2.4338 19.4151 24.3570 8.2705 -7.1250 0.0000 -0.0000 -10.7415 55.2988 -2.7389 -0.0000 0.0000 0.0000 85.7996 -3.0605 10.8325 -12.8379 21.0492 -2.3947 0.0000 0.0000 4.9667 -25.5299 12.1307 -5.7315 7.1250 -0.0000 -0.0000 1.1718 -16.5833 0.7888
0.00 0.00 0.00 -5.9007 47.3827 0.5253 0.0000 0.0000 0.0000 -13.6652 -7.5452 -22.0689 12.1092 18.4364 66.3346 -0.1913 -7.7334 2.5559 0.0057 -0.4869 -1.3379 0.0000 0.0000 0.0000 28.7707 10.6257 -18.9234 -2.5282 -9.8891 28.6182 -0.7349 -1.3770 -16.7489 -0.0228 -0.9749 2.6796 0.8020 -0.1143 0.3415 4.8269 -0.2025 2.5304 4.5324 -0.1189 2.4279 -4.0089 -0.8186 -13.1045 -3.7774 1.6149 31.1726 -0.4751 -0.0653 12.5447 -0.0000 -0.0000 0.0000 -90.5610 -1.8870 26.9592 18.5766 -28.8892 -4.8246 -0.0000 0.0000 -3.2152 19.1605 22.1337 7.4584 -7.1250 0.0000 -0.0000 -10.0715 52.9972 -1.9977 -0.0000 -0.0000 0.0000 85.2356 -0.1344 14.6176 -14.8048 23.8735 -3.1465 0.0000 0.0000 1.1323 -26.0141 12.0902 -5.8365 7.1250 -0.0000 -0.0000 0.8334 -16.5743 0.5611
0.00 0.00 0.00 1.6798 31.4490 3.8901 0.0000 0.0000 0.0000 -26.7763 -0.3759 -9.9174 3.6528 11.6835 34.6214 1.0076 -4.4744 -18.0027 0.0006 -0.1527 -0.4197 0.0000 0.0000 0.0000 26.9157 5.3657 -33.0716 -2.4868 -9.8138 28.3758 0.1292 -7.8340 -7.7355 -0.6257 -5.0616 14.0843 -2.1154 -0.5455 -0.2991 3.1599 -0.7466 2.1304 4.4315 -0.4451 2.4297 -3.9468 -0.5409 -12.8952 -3.6453 1.6294 29.4106 -0.4304 -0.0615 11.7843 -0.0000 -0.0000 0.0000 -87.8559 1.1012 19.4461 20.8585 -31.6628 -5.9755 -0.0000 0.0000 -6.7160 20.1613 23.9662 8.4826 -7.1250 0.0000 -0.0000 -9.7992 55.0513 -2.4359 -0.0000 -0.0000 0.0000 85.9101 0.6340 19.8591 -18.2401 28.4635 -4.6631 0.0000 -0.0000 -0.4588 -24.6042 11.4509 -5.1945 7.1250 -0.0000 -0.0000 1.7764 -17.4238 1.1635
0.00 0.00 0.00 -0.5484 22.7660 3.9259 0.0000 0.0000 0.0000 -24.5062 3.7714 -17.4995 7.1919 15.4914 49.5963 -0.0520 -8.1878 -4.6024 1.0535 -6.5264 -18.3196 0.0000 0.0000 0.0000 28.6508 8.5889 -28.2254 -2.8690 -10.4799 30.5452 -0.3001 -1.4910 -11.0015 -0.7983 -5.7030 15.9251 0.4748 -0.3866 -0.0551 4.2578 -0.5706 1.7665 4.1112 -0.3082 1.8854 -4.3240 -0.4288 -14.4135 -3.8116 1.6746 25.2459 -0.3972 -0.0545 10.5053 -0.0000 0.0000 0.0000 -91.7924 2.5844 19.0142 19.3166 -29.8102 -5.1873 -0.0000 0.0000 -4.7203 19.8096 21.7523 7.6036 -7.1250 0.0000 -0.0000 -9.2764 52.7258 -1.7759 -0.0000 0.0000 0.0000 85.3223 -0.8814 15.5725 -15.9024 25.3882 -3.6040 0.0000 0.0000 0.6081 -25.6447 11.2522 -5.3517 7.1250 -0.0000 -0.0000 1.0370 -17.5358 0.6765
0.00 0.00 0.00 0.6858 10.4402 4.0357 0.0000 0.0000 0.0000 -20.3779 -13.8407 -17.7759 3.9195 12.0525 35.9181 -1.0108 -19.0395 -1.0549 0.3645 -3.8783 -10.7344 0.0000 0.0000 0.0000 22.1291 -3.9007 -31.8500 -14.7975 -19.3383 74.6261 -0.1298 -2.8059 -8.4391 -0.0011 -0.2145 0.5893 -1.9579 6.6382 1.6061 -3.0259 8.8752 2.1071 -2.0367 4.4398 1.4619 -0.1406 19.9800 -3.7807 -11.5624 32.9271 28.2763 -0.0085 13.9851 12.2026 0.0000 -0.0000 0.0000 -88.0515 11.4726 4.5117 15.8064 -25.2574 -3.5629 -0.0000 0.0000 -0.3567 19.0812 22.7055 7.6052 -7.1250 0.0000 -0.0000 -10.3777 53.5632 -2.2038 0.0000 -0.0000 0.0000 82.1519 -2.4819 5.7506 -21.5579 32.4738 -6.3468 0.0000 -0.0000 -9.6958 -26.5653 11.6564 -5.7686 7.1250 -0.0000 -0.0000 0.4206 -16.9919 0.2794
